<svg xmlns="http://www.w3.org/2000/svg" viewBox="0 0 512 512"><path fill="#fefe01" d="M59.19 417.777C14.466 362.98-4.155 295.301 2.355 230.215s38.152-127.58 92.812-172.126c54.718-45.116 122.287-62.95 187.401-56.233S410.283 40.41 455.007 95.207s63.345 122.476 56.835 187.562-38.152 127.58-92.812 172.126-122.287 62.95-187.401 56.233c-65.114-6.717-127.772-37.983-172.439-93.351z"/><path d="M167.128 183.929l-.826 74.415-.657 73.81c-.037 7.161 2.69 13.773 7.306 18.293 4.615 4.521 10.951 7.555 18.13 7.561 2.208.277 4.365-.437 6.741-.766 1.382-.274 2.933-1.154 4.703-1.648l1.551-.88 65.909-37.401 65.909-37.401c6.203-3.52 10.486-9.52 12.174-15.578 1.857-6.663 1.118-13.384-2.384-19.556-1.97-3.472-9.231-9.041-11.488-10.31l-62.876-36.737-.219-.386-.607-.166-65.133-38.006c-6.166-3.641-13.176-4.252-19.868-2.495-1.382.274-2.933 1.154-4.484 2.034-12.794 7.262-13.881 25.217-13.881 25.217zm27.252-5.265l64.308 37.455c.219.386.825.552.825.552l62.876 36.737c.607.166 2.477 1.654 2.914 2.426.438.772.488 1.763.538 2.755-.169.606-1.113 1.652-1.888 2.092l-65.521 37.181-65.521 37.181-.388.22-.775.44s-.388.22-.607-.166c0 0-.607-.166-.994.054-.607-.166-1.432-.717-2.039-.883l-1.095-1.929c.169-.606-.05-.992.119-1.597l.707-72.818c.169-.606-.05-.991-.05-.991l-.219-.386.826-74.415c-.05-.991.237-3.195 1.4-3.855 1.551-.882 3.759-.604 4.584-.053z"/></svg>